<?xml version="1.0" encoding="utf-8"?>
<!-- Generator: Adobe Illustrator 23.1.0, SVG Export Plug-In . SVG Version: 6.00 Build 0)  -->
<svg version="1.1" id="Слой_2" xmlns="http://www.w3.org/2000/svg" xmlns:xlink="http://www.w3.org/1999/xlink" x="0px" y="0px"
	 viewBox="0 0 595.3 841.9" style="enable-background:new 0 0 595.3 841.9;" xml:space="preserve">
<style type="text/css">
	.st0{fill:#FFFFFF;}
</style>
<g>
	<g>
		<path class="st0" d="M328.7,415.7h-63.6c-14.1,0-25.5-11.4-25.5-25.5v-63.6c0-14.1,11.4-25.5,25.5-25.5h63.6
			c14.1,0,25.5,11.4,25.5,25.5v63.6C354.2,404.2,342.8,415.7,328.7,415.7z"/>
		<path d="M328.7,418.2h-63.6c-15.4,0-28-12.6-28-28v-63.6c0-15.4,12.6-28,28-28h63.6c15.4,0,28,12.6,28,28v63.6
			C356.7,405.6,344.2,418.2,328.7,418.2z M265.1,303.5c-12.7,0-23,10.3-23,23v63.6c0,12.7,10.3,23,23,23h63.6c12.7,0,23-10.3,23-23
			v-63.6c0-12.7-10.3-23-23-23H265.1z"/>
	</g>
	<g>
		<path class="st0" d="M197.7,564.2h-63.6c-14.1,0-25.5-11.4-25.5-25.5V475c0-14.1,11.4-25.5,25.5-25.5h63.6
			c14.1,0,25.5,11.4,25.5,25.5v63.6C223.3,552.7,211.8,564.2,197.7,564.2z"/>
		<path d="M197.7,566.7h-63.6c-15.4,0-28-12.6-28-28V475c0-15.4,12.6-28,28-28h63.6c15.4,0,28,12.6,28,28v63.6
			C225.8,554.1,213.2,566.7,197.7,566.7z M134.1,452c-12.7,0-23,10.3-23,23v63.6c0,12.7,10.3,23,23,23h63.6c12.7,0,23-10.3,23-23
			V475c0-12.7-10.3-23-23-23H134.1z"/>
	</g>
	<g>
		<path class="st0" d="M327.5,564.2h-63.6c-14.1,0-25.5-11.4-25.5-25.5V475c0-14.1,11.4-25.5,25.5-25.5h63.6
			c14.1,0,25.5,11.4,25.5,25.5v63.6C353,552.7,341.6,564.2,327.5,564.2z"/>
		<path d="M327.5,566.7h-63.6c-15.4,0-28-12.6-28-28V475c0-15.4,12.6-28,28-28h63.6c15.4,0,28,12.6,28,28v63.6
			C355.5,554.1,342.9,566.7,327.5,566.7z M263.8,452c-12.7,0-23,10.3-23,23v63.6c0,12.7,10.3,23,23,23h63.6c12.7,0,23-10.3,23-23
			V475c0-12.7-10.3-23-23-23H263.8z"/>
	</g>
	<g>
		<path class="st0" d="M461.2,564.2h-63.6c-14.1,0-25.5-11.4-25.5-25.5V475c0-14.1,11.4-25.5,25.5-25.5h63.6
			c14.1,0,25.5,11.4,25.5,25.5v63.6C486.7,552.7,475.3,564.2,461.2,564.2z"/>
		<path d="M461.2,566.7h-63.6c-15.4,0-28-12.6-28-28V475c0-15.4,12.6-28,28-28h63.6c15.4,0,28,12.6,28,28v63.6
			C489.2,554.1,476.6,566.7,461.2,566.7z M397.5,452c-12.7,0-23,10.3-23,23v63.6c0,12.7,10.3,23,23,23h63.6c12.7,0,23-10.3,23-23
			V475c0-12.7-10.3-23-23-23H397.5z"/>
	</g>
	<g>
		<path class="st0" d="M328.7,392.4h-63.6c-14.1,0-25.5-11.4-25.5-25.5v-63.6c0-14.1,11.4-25.5,25.5-25.5h63.6
			c14.1,0,25.5,11.4,25.5,25.5v63.6C354.2,381,342.8,392.4,328.7,392.4z"/>
		<path d="M328.7,394.9h-63.6c-15.4,0-28-12.6-28-28v-63.6c0-15.4,12.6-28,28-28h63.6c15.4,0,28,12.6,28,28v63.6
			C356.7,382.3,344.2,394.9,328.7,394.9z M265.1,280.2c-12.7,0-23,10.3-23,23v63.6c0,12.7,10.3,23,23,23h63.6c12.7,0,23-10.3,23-23
			v-63.6c0-12.7-10.3-23-23-23H265.1z"/>
	</g>
	<circle cx="243.7" cy="395.2" r="2.6"/>
	<circle cx="252.6" cy="403.1" r="2.6"/>
	<circle cx="260" cy="411.3" r="2.6"/>
	<circle cx="259.8" cy="395.2" r="2.6"/>
	<circle cx="267.6" cy="403.3" r="2.6"/>
	<circle cx="275.1" cy="411.4" r="2.6"/>
	<circle cx="275.1" cy="395.2" r="2.6"/>
	<circle cx="282.9" cy="402.9" r="2.6"/>
	<circle cx="290.4" cy="411" r="2.6"/>
	<circle cx="290.4" cy="395.2" r="2.6"/>
	<circle cx="298.2" cy="403.1" r="2.6"/>
	<circle cx="305.6" cy="411.2" r="2.6"/>
	<circle cx="305.6" cy="395.2" r="2.6"/>
	<circle cx="313.4" cy="402.7" r="2.6"/>
	<circle cx="320.9" cy="410.8" r="2.6"/>
	<circle cx="320.4" cy="395.2" r="2.6"/>
	<circle cx="328.2" cy="403.1" r="2.6"/>
	<circle cx="335.6" cy="411.2" r="2.6"/>
	<circle cx="335.6" cy="395.2" r="2.6"/>
	<circle cx="343.4" cy="402.7" r="2.6"/>
	<circle cx="349.9" cy="395.2" r="2.6"/>
	<g>
		<path class="st0" d="M197.7,540.9h-63.6c-14.1,0-25.5-11.4-25.5-25.5v-63.6c0-14.1,11.4-25.5,25.5-25.5h63.6
			c14.1,0,25.5,11.4,25.5,25.5v63.6C223.3,529.5,211.8,540.9,197.7,540.9z"/>
		<path d="M197.7,543.4h-63.6c-15.4,0-28-12.6-28-28v-63.6c0-15.4,12.6-28,28-28h63.6c15.4,0,28,12.6,28,28v63.6
			C225.8,530.8,213.2,543.4,197.7,543.4z M134.1,428.7c-12.7,0-23,10.3-23,23v63.6c0,12.7,10.3,23,23,23h63.6c12.7,0,23-10.3,23-23
			v-63.6c0-12.7-10.3-23-23-23H134.1z"/>
	</g>
	<circle cx="112.8" cy="543.7" r="2.6"/>
	<circle cx="121.6" cy="551.6" r="2.6"/>
	<circle cx="129" cy="559.8" r="2.6"/>
	<circle cx="128.8" cy="543.7" r="2.6"/>
	<circle cx="136.7" cy="551.8" r="2.6"/>
	<circle cx="144.1" cy="559.9" r="2.6"/>
	<circle cx="144.1" cy="543.7" r="2.6"/>
	<circle cx="151.9" cy="551.4" r="2.6"/>
	<circle cx="159.4" cy="559.5" r="2.6"/>
	<circle cx="159.4" cy="543.7" r="2.6"/>
	<circle cx="167.2" cy="551.6" r="2.6"/>
	<circle cx="174.6" cy="559.7" r="2.6"/>
	<circle cx="174.6" cy="543.7" r="2.6"/>
	<circle cx="182.5" cy="551.2" r="2.6"/>
	<circle cx="189.9" cy="559.3" r="2.6"/>
	<circle cx="189.4" cy="543.7" r="2.6"/>
	<circle cx="197.2" cy="551.6" r="2.6"/>
	<circle cx="204.6" cy="559.7" r="2.6"/>
	<circle cx="204.6" cy="543.7" r="2.6"/>
	<circle cx="212.5" cy="551.2" r="2.6"/>
	<circle cx="218.9" cy="543.7" r="2.6"/>
	<g>
		<path class="st0" d="M327.5,540.9h-63.6c-14.1,0-25.5-11.4-25.5-25.5v-63.6c0-14.1,11.4-25.5,25.5-25.5h63.6
			c14.1,0,25.5,11.4,25.5,25.5v63.6C353,529.5,341.6,540.9,327.5,540.9z"/>
		<path d="M327.5,543.4h-63.6c-15.4,0-28-12.6-28-28v-63.6c0-15.4,12.6-28,28-28h63.6c15.4,0,28,12.6,28,28v63.6
			C355.5,530.8,342.9,543.4,327.5,543.4z M263.8,428.7c-12.7,0-23,10.3-23,23v63.6c0,12.7,10.3,23,23,23h63.6c12.7,0,23-10.3,23-23
			v-63.6c0-12.7-10.3-23-23-23H263.8z"/>
	</g>
	<circle cx="242.5" cy="543.7" r="2.6"/>
	<circle cx="251.3" cy="551.6" r="2.6"/>
	<circle cx="258.8" cy="559.8" r="2.6"/>
	<circle cx="258.6" cy="543.7" r="2.6"/>
	<circle cx="266.4" cy="551.8" r="2.6"/>
	<circle cx="273.8" cy="559.9" r="2.6"/>
	<circle cx="273.8" cy="543.7" r="2.6"/>
	<circle cx="281.7" cy="551.4" r="2.6"/>
	<circle cx="289.1" cy="559.5" r="2.6"/>
	<circle cx="289.1" cy="543.7" r="2.6"/>
	<circle cx="296.9" cy="551.6" r="2.6"/>
	<circle cx="304.4" cy="559.7" r="2.6"/>
	<circle cx="304.4" cy="543.7" r="2.6"/>
	<circle cx="312.2" cy="551.2" r="2.6"/>
	<circle cx="319.6" cy="559.3" r="2.6"/>
	<circle cx="319.1" cy="543.7" r="2.6"/>
	<circle cx="326.9" cy="551.6" r="2.6"/>
	<circle cx="334.4" cy="559.7" r="2.6"/>
	<circle cx="334.4" cy="543.7" r="2.6"/>
	<circle cx="342.2" cy="551.2" r="2.6"/>
	<circle cx="348.6" cy="543.7" r="2.6"/>
	<g>
		<path class="st0" d="M461.2,540.9h-63.6c-14.1,0-25.5-11.4-25.5-25.5v-63.6c0-14.1,11.4-25.5,25.5-25.5h63.6
			c14.1,0,25.5,11.4,25.5,25.5v63.6C486.7,529.5,475.3,540.9,461.2,540.9z"/>
		<path d="M461.2,543.4h-63.6c-15.4,0-28-12.6-28-28v-63.6c0-15.4,12.6-28,28-28h63.6c15.4,0,28,12.6,28,28v63.6
			C489.2,530.8,476.6,543.4,461.2,543.4z M397.5,428.7c-12.7,0-23,10.3-23,23v63.6c0,12.7,10.3,23,23,23h63.6c12.7,0,23-10.3,23-23
			v-63.6c0-12.7-10.3-23-23-23H397.5z"/>
	</g>
	<circle cx="376.2" cy="543.7" r="2.6"/>
	<circle cx="385" cy="551.6" r="2.6"/>
	<circle cx="392.5" cy="559.8" r="2.6"/>
	<circle cx="392.3" cy="543.7" r="2.6"/>
	<circle cx="400.1" cy="551.8" r="2.6"/>
	<circle cx="407.5" cy="559.9" r="2.6"/>
	<circle cx="407.5" cy="543.7" r="2.6"/>
	<circle cx="415.4" cy="551.4" r="2.6"/>
	<circle cx="422.8" cy="559.5" r="2.6"/>
	<circle cx="422.8" cy="543.7" r="2.6"/>
	<circle cx="430.6" cy="551.6" r="2.6"/>
	<circle cx="438.1" cy="559.7" r="2.6"/>
	<circle cx="438.1" cy="543.7" r="2.6"/>
	<circle cx="445.9" cy="551.2" r="2.6"/>
	<circle cx="453.3" cy="559.3" r="2.6"/>
	<circle cx="452.8" cy="543.7" r="2.6"/>
	<circle cx="460.6" cy="551.6" r="2.6"/>
	<circle cx="468.1" cy="559.7" r="2.6"/>
	<circle cx="468.1" cy="543.7" r="2.6"/>
	<circle cx="475.9" cy="551.2" r="2.6"/>
	<circle cx="482.3" cy="543.7" r="2.6"/>
	<g>
		<path d="M291.8,310.3H302l9.1,31.7l9-31.7h12.8l-15.7,51.5h-11.6l-8.8-30.1l-8.8,30.1h-11.6l-15.7-51.5h12.8l9,31.7L291.8,310.3z"
			/>
	</g>
	<g>
		<path d="M151.5,505.6h-12.9l21.3-51.5h11.8l21.3,51.5h-12.9l-3.9-10.1h-20.7L151.5,505.6z M159.4,485.5h12.8l-6.4-16.3
			L159.4,485.5z"/>
	</g>
	<g>
		<path d="M311.1,466.3c-5.2-2.6-9.7-3.2-14.1-3.2c-5.3,0-7.9,1.8-7.9,5c0,3.4,3.3,5.1,9.6,6.4c13,2.8,20.3,7.2,20.3,16.9
			c0,10.7-8.7,15.7-22,15.7c-9.3,0-16.2-1.9-21.6-6.2l5.8-8.4c5.3,3.3,11.3,4.2,15.8,4.2c7.2,0,9.9-2,9.9-5.3
			c0-3.4-3.4-4.8-10.5-6.2c-13.6-2.9-19.4-8.7-19.4-17c0-7.9,5.2-15.4,20-15.4c8.3,0,15,1.9,20,5.2L311.1,466.3z"/>
	</g>
	<g>
		<path d="M428.1,505.6h-21.8v-51.5h21.8c17.3,0,25.7,10.9,25.7,25.7C453.8,494.7,445.4,505.6,428.1,505.6z M418.3,495.2h9.8
			c9.9,0,13.4-7.4,13.4-15.4c0-8-3.5-15.4-13.4-15.4h-9.8V495.2z"/>
	</g>
</g>
</svg>
